<svg width="48" height="48" viewBox="0 0 48 48" fill="none" xmlns="http://www.w3.org/2000/svg">
<rect x="6" y="15" width="38" height="18" fill="white"/>
<path fill-rule="evenodd" clip-rule="evenodd" d="M24 0C34.5167 0 41.8998 1.53675 44.1815 3.81849C46.4632 6.10022 48 13.4833 48 24C48 34.5167 46.4632 41.8998 44.1815 44.1815C41.8998 46.4632 34.5167 48 24 48C13.4833 48 6.10022 46.4632 3.81849 44.1815C1.53674 41.8998 0 34.5167 0 24C0 13.4833 1.53676 6.10022 3.81849 3.81849C6.10021 1.53675 13.4833 0 24 0ZM14.4946 17.8447C12.8143 17.8447 11.3803 18.4385 10.1927 19.6262C9.00482 20.814 8.41107 22.2481 8.41107 23.9282C8.41107 25.6083 9.00482 27.0423 10.1927 28.23C11.3803 29.4179 12.8143 30.0116 14.4946 30.0116C15.2187 30.0116 15.8995 29.8958 16.5369 29.664C17.1741 29.4323 17.7644 29.0991 18.3076 28.6646V28.8819C18.3076 29.1933 18.4179 29.4594 18.639 29.6803C18.8599 29.9012 19.1295 30.0116 19.4483 30.0116C19.7596 30.0116 20.0258 29.9012 20.2467 29.6803C20.4676 29.4594 20.5781 29.1933 20.5781 28.8819V23.9282C20.5781 22.2481 19.9841 20.814 18.7965 19.6262C17.5942 18.4385 16.1603 17.8447 14.4946 17.8447ZM34.6461 17.8447C33.1832 17.8447 31.9483 18.4205 30.9417 19.5719C30.4637 18.9926 29.906 18.56 29.2687 18.2738C28.6314 17.9877 27.9505 17.8447 27.2265 17.8447C26.2415 17.8447 25.3616 18.1018 24.5867 18.6159C24.5142 18.3843 24.3803 18.1977 24.1847 18.0565C23.9892 17.9153 23.7646 17.8447 23.5112 17.8447C23.1997 17.8447 22.9336 17.9552 22.7127 18.1761C22.4916 18.397 22.3814 18.6632 22.3814 18.9745V28.8709C22.3814 29.1898 22.4916 29.4594 22.7127 29.6803C22.9336 29.9012 23.2033 30.0116 23.522 30.0116C23.8333 30.0116 24.0996 29.9012 24.3204 29.6803C24.5413 29.4594 24.6518 29.1898 24.6518 28.8709V22.6897C24.6518 22.335 24.7188 22.0018 24.8528 21.6903C24.9868 21.379 25.1715 21.1055 25.4068 20.8701C25.6421 20.6348 25.9156 20.4501 26.227 20.3161C26.5382 20.1822 26.8716 20.1151 27.2265 20.1151C27.5813 20.1151 27.9144 20.184 28.2258 20.3215C28.5372 20.4591 28.8088 20.6438 29.0407 20.8756C29.2723 21.1074 29.457 21.379 29.5947 21.6903C29.7321 22.0018 29.801 22.335 29.801 22.6897V28.8709C29.801 29.1898 29.9114 29.4594 30.1324 29.6803C30.3532 29.9012 30.6229 30.0116 30.9417 30.0116C31.2531 30.0116 31.5192 29.9012 31.7402 29.6803C31.961 29.4594 32.0716 29.1898 32.0716 28.8709V22.6897C32.0716 22.335 32.1384 22.0018 32.2724 21.6903C32.4064 21.379 32.5911 21.1074 32.8265 20.8756C33.0618 20.6438 33.3352 20.4591 33.6467 20.3215C33.958 20.184 34.2912 20.1151 34.6461 20.1151C35.0081 20.1151 35.3468 20.184 35.6619 20.3215C35.9769 20.4591 36.2501 20.6458 36.482 20.881C36.7137 21.1164 36.8965 21.3899 37.0307 21.7012C37.1646 22.0126 37.2317 22.3421 37.2317 22.6897V28.8709C37.2317 29.1898 37.3403 29.4594 37.5575 29.6803C37.7747 29.9012 38.0427 30.0116 38.3614 30.0116C38.6726 30.0116 38.9388 29.9012 39.1598 29.6803C39.3807 29.4594 39.4911 29.1898 39.4911 28.8709V22.6897C39.4911 22.0308 39.3625 21.4061 39.1055 20.8158C38.8484 20.2256 38.5008 19.7115 38.0627 19.2732C37.6244 18.8351 37.1102 18.4875 36.52 18.2304C35.9296 17.9733 35.3051 17.8447 34.6461 17.8447ZM14.4946 20.1151C15.0232 20.1151 15.5193 20.2165 15.9828 20.4193C16.4462 20.6221 16.8501 20.8973 17.1942 21.2449C17.538 21.5925 17.8095 21.9964 18.0088 22.4561C18.208 22.9162 18.3076 23.4067 18.3076 23.9282C18.3076 24.4496 18.208 24.9402 18.0088 25.4002C17.8095 25.8602 17.538 26.2637 17.1942 26.6114C16.8501 26.9591 16.4462 27.2343 15.9828 27.4371C15.5193 27.6398 15.0232 27.7412 14.4946 27.7412C13.9586 27.7412 13.4588 27.6398 12.9954 27.4371C12.5319 27.2343 12.13 26.9608 11.7896 26.6169C11.4491 26.2729 11.1794 25.8691 10.9803 25.4055C10.781 24.9421 10.6815 24.4496 10.6815 23.9282C10.6815 23.4067 10.781 22.9142 10.9803 22.4508C11.1794 21.9874 11.4491 21.5835 11.7896 21.2395C12.13 20.8956 12.5319 20.6221 12.9954 20.4193C13.4588 20.2165 13.9586 20.1151 14.4946 20.1151Z" fill="#4FA5CB"/>
</svg>
