<?xml version="1.0" encoding="UTF-8"?>
<svg fill="#FFFFFF" xmlns="http://www.w3.org/2000/svg" width="106" height="20" viewBox="0 0 106 20">
  <g>
    <path d="M21.2928,1.2886c4.4432,0,7.0739,2.7344,7.0739,7.4467s-2.6206,7.4984-7.0739,7.4984h-5.2721V1.2886h5.2721ZM18.3409,14.225h2.7344c3.1691,0,4.9196-1.9368,4.9196-5.4685s-1.7608-5.4685-4.9196-5.4685h-2.7344s0,10.937,0,10.937Z"/>
    <path d="M39.3395,13.0341c-.3106,1.9884-2.1958,3.4077-4.6919,3.4077-3.2003,0-5.1368-2.1645-5.1368-5.6034,0-3.4178,1.9677-5.6965,5.044-5.6965,3.0243,0,4.9091,2.1336,4.9091,5.4376v.7664h-7.6952v.1346c0,1.8953,1.1392,3.1487,2.9308,3.1487,1.2741,0,2.2165-.6423,2.5169-1.5949h2.1234-.0004ZM31.7786,9.7818h5.4478c-.0517-1.6673-1.1082-2.8377-2.6722-2.8377s-2.6617,1.1912-2.7759,2.8377h.0004Z"/>
    <path d="M46.209,16.2341h-2.4027l-3.9252-10.8959h2.3823l2.7344,8.7103h.0415l2.7341-8.7103h2.3405l-3.9045,10.8959h-.0004Z"/>
    <path d="M60.1471,13.0341c-.3106,1.9884-2.1958,3.4077-4.6919,3.4077-3.2003,0-5.1368-2.1645-5.1368-5.6034,0-3.4178,1.9677-5.6965,5.044-5.6965,3.0243,0,4.9091,2.1336,4.9091,5.4376v.7664h-7.6952v.1346c0,1.8953,1.1392,3.1487,2.9308,3.1487,1.2741,0,2.2165-.6423,2.5169-1.5949h2.1234-.0003ZM52.5865,9.7818h5.4478c-.0517-1.6673-1.1082-2.8377-2.6722-2.8377s-2.6617,1.1912-2.7755,2.8377Z"/>
    <path d="M61.852,1.2886h2.2372v14.9455h-2.2372V1.2886Z"/>
    <path d="M65.605,10.7864c0-3.5004,2.0612-5.6445,5.1684-5.6445s5.1684,2.1438,5.1684,5.6445-2.0506,5.6551-5.1684,5.6551-5.1684-2.1441-5.1684-5.6551ZM73.6628,10.7864c0-2.4133-1.1392-3.8009-2.8894-3.8009s-2.8897,1.3879-2.8897,3.8009,1.1392,3.8114,2.8897,3.8114c1.7608,0,2.8894-1.3879,2.8894-3.8114Z"/>
    <path d="M87.6817,10.7864c0,3.4488-1.8124,5.6343-4.5468,5.6343-1.564,0-2.8068-.7664-3.428-1.9783h-.0517v5.3961h-2.2372V5.3386h2.1648v1.8746h.0415c.6423-1.2534,1.8953-2.0506,3.4699-2.0506,2.7657,0,4.5883,2.175,4.5883,5.6238h-.0007ZM85.3827,10.7864c0-2.2783-1.1082-3.7387-2.8792-3.7387-1.7091,0-2.8588,1.4912-2.8588,3.7387,0,2.2681,1.1392,3.739,2.8588,3.739,1.7709,0,2.8792-1.4498,2.8792-3.739Z"/>
    <path d="M98.6173,13.0341c-.3106,1.9884-2.1958,3.4077-4.6919,3.4077-3.2003,0-5.1368-2.1645-5.1368-5.6034,0-3.4178,1.9677-5.6965,5.044-5.6965,3.0243,0,4.9091,2.1336,4.9091,5.4376v.7664h-7.6952v.1346c0,1.8953,1.1392,3.1487,2.9308,3.1487,1.2741,0,2.2165-.6423,2.5169-1.5949h2.1234-.0004ZM91.0567,9.7818h5.4478c-.0517-1.6673-1.1082-2.8377-2.6722-2.8377s-2.6617,1.1912-2.7759,2.8377h.0004Z"/>
    <path d="M100.3664,5.3386h2.1336v1.8539h.0517c.3626-1.2737,1.3359-2.0299,2.6206-2.0299.3208,0,.6009.0517.7664.0829v2.0816c-.176-.0724-.5696-.124-1.0046-.124-1.4396,0-2.3303.9635-2.3303,2.5064v6.5251h-2.2372V5.3386h0Z"/>
  </g>
  <g>
    <path d="M9.7367,4.0747c-1.3335-.0987-2.4646.7449-3.0956.7449-.6402,0-1.6276-.7235-2.6743-.7038-1.3746.02-2.6413.7997-3.3504,2.0306-1.428,2.4783-.3647,6.1502,1.026,8.1611.6803.9825,1.4916,2.09,2.557,2.0496,1.0257-.0404,1.4139-.6634,2.6536-.6634s1.5886.6634,2.6733.6437c1.104-.0204,1.8036-1.0028,2.4786-1.9909.7815-1.1406,1.1023-2.2446,1.1216-2.3033-.0242-.0091-2.1522-.8257-2.1733-3.2769-.0193-2.0492,1.6729-3.0345,1.7495-3.0819-.96-1.4143-2.4438-1.5703-2.9663-1.6093l.0004-.0004Z"/>
    <path d="M8.9141,2.7472c.5664-.6845.9473-1.6374.8423-2.5858-.8148.0323-1.8008.5429-2.3855,1.227-.5236.6058-.9835,1.5763-.8584,2.5053.9083.0699,1.8356-.4614,2.4013-1.1465h.0004Z"/>
  </g>
</svg>
