<?xml version="1.0" encoding="UTF-8"?>
<svg width="30px" height="30px" viewBox="0 0 30 30" version="1.1" xmlns="http://www.w3.org/2000/svg" xmlns:xlink="http://www.w3.org/1999/xlink">
    <title>applewatch</title>
    <g id="App-Store-Icons" stroke="none" stroke-width="1" fill="none" fill-rule="evenodd">
        <g id="Apple-platforms" transform="translate(-252.000000, -70.000000)">
            <g id="applewatch" transform="translate(252.000000, 70.000000)">
                <rect id="Rectangle" fill-opacity="0" fill="#EFDBDB" x="0" y="0" width="30" height="30"></rect>
                <g transform="translate(8.000000, 5.000000)" fill="#000000" fill-rule="nonzero">
                    <rect id="Rectangle" opacity="0" x="0" y="0" width="14.7266" height="20.9082"></rect>
                    <path d="M1.99219,14.1992 L1.99219,6.71875 C1.99219,5.26367 2.8418,4.38477 4.26758,4.38477 L10.0488,4.38477 C11.4746,4.38477 12.3242,5.26367 12.3242,6.71875 L12.3242,14.1992 C12.3242,15.6445 11.4746,16.5234 10.0488,16.5234 L4.26758,16.5234 C2.8418,16.5234 1.99219,15.6445 1.99219,14.1992 Z" id="Path" fill-opacity="0.2125"></path>
                    <path d="M0.566406,14.4043 C0.566406,15.918 1.16211,17.0312 2.26562,17.6367 C2.80273,17.9199 3.11523,18.2812 3.31055,18.9355 L3.62305,19.9805 C3.80859,20.6055 4.24805,20.9082 4.90234,20.9082 L9.41406,20.9082 C10.0879,20.9082 10.498,20.6152 10.6836,19.9805 L11.0059,18.9355 C11.2012,18.2812 11.5137,17.9199 12.0508,17.6367 C13.1543,17.0312 13.75,15.918 13.75,14.4043 L13.75,6.50391 C13.75,4.99023 13.1543,3.88672 12.0508,3.27148 C11.5137,2.98828 11.2012,2.62695 11.0059,1.98242 L10.6836,0.927734 C10.5176,0.3125 10.0781,0 9.41406,0 L4.90234,0 C4.24805,0 3.80859,0.302734 3.62305,0.927734 L3.31055,1.98242 C3.125,2.61719 2.8125,2.99805 2.26562,3.27148 C1.17188,3.85742 0.566406,4.9707 0.566406,6.50391 L0.566406,14.4043 Z M1.99219,14.1992 L1.99219,6.71875 C1.99219,5.26367 2.8418,4.38477 4.26758,4.38477 L10.0488,4.38477 C11.4746,4.38477 12.3242,5.26367 12.3242,6.71875 L12.3242,14.1992 C12.3242,15.6445 11.4746,16.5234 10.0488,16.5234 L4.26758,16.5234 C2.8418,16.5234 1.99219,15.6445 1.99219,14.1992 Z M13.5352,9.76562 L13.8867,9.76562 C14.3945,9.76562 14.7266,9.42383 14.7266,8.86719 L14.7266,7.54883 C14.7266,6.99219 14.3945,6.65039 13.8867,6.65039 L13.5352,6.65039 L13.5352,9.76562 Z" id="Shape" fill-opacity="0.85"></path>
                </g>
            </g>
        </g>
    </g>
</svg>