<?xml version="1.0" encoding="UTF-8"?>
<svg width="30px" height="30px" viewBox="0 0 30 30" version="1.1" xmlns="http://www.w3.org/2000/svg" xmlns:xlink="http://www.w3.org/1999/xlink">
    <title>applewatch</title>
    <g id="App-Store-Icons" stroke="none" stroke-width="1" fill="none" fill-rule="evenodd">
        <g id="Apple-platforms" transform="translate(-296.000000, -70.000000)">
            <g id="applewatch" transform="translate(296.000000, 70.000000)">
                <rect id="Rectangle" fill-opacity="0" fill="#EFDBDB" x="0" y="0" width="30" height="30"></rect>
                <g transform="translate(8.000000, 5.000000)" fill="#000000" fill-rule="nonzero">
                    <rect id="Rectangle" opacity="0" x="0.003594" y="0" width="14.16" height="20.9082"></rect>
                    <path d="M1.425784,14.1992 L1.425784,6.71875 C1.425784,5.26367 2.275394,4.38477 3.701174,4.38477 L9.482394,4.38477 C10.908194,4.38477 11.757794,5.26367 11.757794,6.71875 L11.757794,14.1992 C11.757794,15.6445 10.908194,16.5234 9.482394,16.5234 L3.701174,16.5234 C2.275394,16.5234 1.425784,15.6445 1.425784,14.1992 Z" id="Path" fill-opacity="0.2125"></path>
                    <path d="M0,14.4043 C0,15.918 0.595704,17.0312 1.699214,17.6367 C2.236324,17.9199 2.548824,18.2812 2.744144,18.9355 L3.056644,19.9805 C3.242184,20.6055 3.681644,20.9082 4.335934,20.9082 L8.847654,20.9082 C9.521494,20.9082 9.931594,20.6152 10.117194,19.9805 L10.439494,18.9355 C10.634794,18.2812 10.947294,17.9199 11.484394,17.6367 C12.587894,17.0312 13.183594,15.918 13.183594,14.4043 L13.183594,6.50391 C13.183594,4.99023 12.587894,3.88672 11.484394,3.27148 C10.947294,2.98828 10.634794,2.62695 10.439494,1.98242 L10.117194,0.927734 C9.951194,0.3125 9.511694,0 8.847654,0 L4.335934,0 C3.681644,0 3.242184,0.302734 3.056644,0.927734 L2.744144,1.98242 C2.558594,2.61719 2.246094,2.99805 1.699214,3.27148 C0.605474,3.85742 0,4.9707 0,6.50391 L0,14.4043 Z M1.425784,14.1992 L1.425784,6.71875 C1.425784,5.26367 2.275394,4.38477 3.701174,4.38477 L9.482394,4.38477 C10.908194,4.38477 11.757794,5.26367 11.757794,6.71875 L11.757794,14.1992 C11.757794,15.6445 10.908194,16.5234 9.482394,16.5234 L3.701174,16.5234 C2.275394,16.5234 1.425784,15.6445 1.425784,14.1992 Z M12.968794,9.76562 L13.320294,9.76562 C13.828094,9.76562 14.160194,9.42383 14.160194,8.86719 L14.160194,7.54883 C14.160194,6.99219 13.828094,6.65039 13.320294,6.65039 L12.968794,6.65039 L12.968794,9.76562 Z" id="Shape" fill-opacity="0.85"></path>
                </g>
            </g>
        </g>
    </g>
</svg>