<svg width="70" height="70" viewBox="0 0 70 70" fill="none" xmlns="http://www.w3.org/2000/svg">
<path d="M54.6191 0H15.3809C6.88379 0 0 6.88379 0 15.3809V54.6191C0 63.1162 6.88379 70 15.3809 70H54.6191C63.1162 70 70 63.1162 70 54.6191V15.3809C70 6.88379 63.1162 0 54.6191 0Z" fill="#121212"/>
<path d="M53.5732 21.7383H18.71C18.334 21.7383 18.0264 22.0459 18.0264 22.4219V31.2539C18.0264 40.626 25.6553 48.2549 35.0273 48.2549C44.1738 48.2549 51.6523 40.9951 52.0146 31.9375H53.5732C56.3896 31.9375 58.6797 29.6475 58.6797 26.8379C58.6797 24.0283 56.3828 21.7383 53.5732 21.7383ZM37.1328 39.4844C36.8867 40.4141 36.0322 41.0977 35.0273 41.0977C34.0225 41.0977 33.168 40.4141 32.9219 39.4844C32.8398 39.1904 32.8672 38.876 32.9834 38.5889L34.9658 33.6396C34.9932 33.5781 35.0752 33.5781 35.1025 33.6396L37.085 38.5889C37.1875 38.876 37.208 39.1904 37.1328 39.4844Z" fill="white"/>
</svg>
