<?xml version="1.0" encoding="UTF-8"?>
<svg width="30px" height="30px" viewBox="0 0 30 30" version="1.1" xmlns="http://www.w3.org/2000/svg" xmlns:xlink="http://www.w3.org/1999/xlink">
    <title>desktopcomputer</title>
    <g id="App-Store-Icons" stroke="none" stroke-width="1" fill="none" fill-rule="evenodd">
        <g id="Apple-platforms" transform="translate(-158.000000, -70.000000)">
            <g id="desktopcomputer" transform="translate(158.000000, 70.000000)">
                <rect id="Rectangle" fill-opacity="0" fill="#EFDBDB" x="0" y="0" width="30" height="30"></rect>
                <g transform="translate(3.000000, 5.000000)" fill="#000000" fill-rule="nonzero">
                    <rect id="Rectangle" opacity="0" x="0" y="0" width="23.28" height="19.68"></rect>
                    <path d="M1.99219,11.9079 C1.69922,11.9079 1.57227,11.8005 1.57227,11.488 L1.57227,2.27898 C1.57227,1.83953 1.8457,1.57586 2.27539,1.57586 L21.0059,1.57586 C21.4355,1.57586 21.709,1.83953 21.709,2.27898 L21.709,11.488 C21.709,11.8005 21.5723,11.9079 21.2793,11.9079 L1.99219,11.9079 Z" id="Path" fill-opacity="0.2125"></path>
                    <path d="M2.24609,16.2145 L21.0254,16.2145 C22.4316,16.2145 23.2812,15.3649 23.2812,13.9587 L23.2812,2.24969 C23.2812,0.84344 22.4316,0.003594 21.0254,0.003594 L2.24609,0.003594 C0.849609,0.003594 0,0.84344 0,2.24969 L0,13.9587 C0,15.3649 0.849609,16.2145 2.24609,16.2145 Z M1.99219,11.9079 C1.69922,11.9079 1.57227,11.8005 1.57227,11.488 L1.57227,2.27898 C1.57227,1.83953 1.8457,1.57586 2.27539,1.57586 L21.0059,1.57586 C21.4355,1.57586 21.709,1.83953 21.709,2.27898 L21.709,11.488 C21.709,11.8005 21.5723,11.9079 21.2793,11.9079 L1.99219,11.9079 Z M8.55469,18.5388 L14.7266,18.5388 L14.7266,16.0876 L8.55469,16.0876 L8.55469,18.5388 Z M8.49609,19.6813 L14.7852,19.6813 C15.2148,19.6813 15.5664,19.3298 15.5664,18.8903 C15.5664,18.4509 15.2148,18.0993 14.7852,18.0993 L8.49609,18.0993 C8.06641,18.0993 7.70508,18.4509 7.70508,18.8903 C7.70508,19.3298 8.06641,19.6813 8.49609,19.6813 Z" id="Shape" fill-opacity="0.85"></path>
                </g>
            </g>
        </g>
    </g>
</svg>