<svg width="40" height="40" viewBox="0 0 40 40" fill="none" xmlns="http://www.w3.org/2000/svg">
<path fill-rule="evenodd" clip-rule="evenodd" d="M18.5645 0H26.3224C30.5181 0 33.9194 3.40124 33.9194 7.59689C33.9194 11.7926 30.5181 15.1938 26.3224 15.1938H18.5645V0ZM21.3552 2.7907V12.4031H26.3224C28.9768 12.4031 31.1287 10.2513 31.1287 7.59689C31.1287 4.94251 28.9768 2.7907 26.3224 2.7907H21.3552Z" fill="white"/>
<path fill-rule="evenodd" clip-rule="evenodd" d="M6.00019 7.59705C6.00019 3.4014 9.40144 0.000160018 13.5971 0.000160018H21.3551V15.194H13.5971C9.40143 15.194 6.00019 11.7927 6.00019 7.59705ZM13.5971 2.79086C10.9427 2.79086 8.79089 4.94267 8.79089 7.59705C8.79089 10.2515 10.9427 12.4033 13.5971 12.4033H18.5644V2.79086H13.5971Z" fill="white"/>
<path fill-rule="evenodd" clip-rule="evenodd" d="M6 20.0001C6 15.8044 9.40144 12.4033 13.5971 12.4033L21.3552 12.4031L21.3549 27.597H13.5969C9.40125 27.597 6 24.1958 6 20.0001ZM13.5971 15.194C10.9427 15.194 8.7907 17.3457 8.7907 20.0001C8.7907 22.6545 10.9425 24.8063 13.5969 24.8063H18.5642L18.5645 15.1938L13.5971 15.194Z" fill="white"/>
<path fill-rule="evenodd" clip-rule="evenodd" d="M6 32.4031C6 28.2074 9.40125 24.8063 13.5969 24.8063L21.3549 24.8062V32.3225C21.3549 36.5743 17.8654 40 13.6369 40C9.45296 40 6 36.6104 6 32.4031ZM13.5969 27.597C10.9425 27.597 8.7907 29.7487 8.7907 32.4031C8.7907 35.0458 10.9708 37.2093 13.6369 37.2093C16.3475 37.2093 18.5642 35.0098 18.5642 32.3225V27.5969L13.5969 27.597Z" fill="white"/>
<path fill-rule="evenodd" clip-rule="evenodd" d="M18.5645 20.0001C18.5645 15.8044 21.9657 12.4032 26.1614 12.4032L26.3224 12.4031C30.5181 12.4031 33.9194 15.8044 33.9194 20.0001C33.9194 24.1958 30.5181 27.597 26.3224 27.597H26.1614C21.9657 27.597 18.5645 24.1958 18.5645 20.0001ZM26.1614 15.1939C23.507 15.1939 21.3552 17.3457 21.3552 20.0001C21.3552 22.6545 23.507 24.8063 26.1614 24.8063H26.3224C28.9768 24.8063 31.1287 22.6545 31.1287 20.0001C31.1287 17.3457 28.9769 15.1938 26.3224 15.1938L26.1614 15.1939Z" fill="white"/>
</svg>
