<svg width="70" height="70" viewBox="0 0 70 70" fill="none" xmlns="http://www.w3.org/2000/svg">
<path d="M69.5887 12.4826C69.3289 10.9493 68.8598 9.52791 68.167 8.17863C67.4562 6.81132 66.5613 5.57388 65.5149 4.53847C64.4541 3.47781 63.2237 2.5795 61.8742 1.88682C60.5067 1.20497 59.1031 0.750399 57.5696 0.465392C56.0541 0.180384 54.4737 0.115446 52.9799 0.057723C52.6299 0.057723 52.251 0.057723 51.9191 0.0288615C51.5691 0.0288615 51.2082 0 50.8582 0H48.3289H38.5938H31.4928H21.7469H19.1959C18.4851 0 17.7742 0 17.0706 0.0288615C15.7969 0.0757615 14.0866 0.147915 12.4809 0.43653C10.9474 0.696284 9.57268 1.14725 8.17629 1.85796C6.80876 2.56868 5.57113 3.46338 4.53557 4.50961C3.47474 5.57027 2.57629 6.8005 1.88351 8.14977C1.20515 9.51709 0.754124 10.9205 0.465464 12.4537C0.180412 13.969 0.115464 15.5491 0.057732 17.0427C0.057732 17.3927 0.057732 17.7715 0.028866 18.1034C0.028866 18.4533 0 18.8141 0 19.164V21.693V31.4374V38.5301V48.2745V50.8035C0 51.5142 0 52.2249 0.028866 52.9284C0.0757732 54.2019 0.147938 55.912 0.436598 57.5174C0.696392 59.0507 1.16546 60.4721 1.85825 61.8214C2.56907 63.1887 3.46392 64.4261 4.51031 65.4615C5.57113 66.5222 6.80155 67.4205 8.15103 68.1132C9.51856 68.795 10.9222 69.2496 12.4557 69.5346C13.9711 69.8196 15.5515 69.8846 17.0454 69.9423C17.3954 69.9423 17.7742 69.9423 18.1062 69.9711C18.4562 69.9711 18.817 70 19.167 70H21.6964H31.4423H47.5892H48.2711H50.8005C51.5113 70 52.2222 70 52.9258 69.9711C54.1995 69.9242 55.9098 69.8521 57.5155 69.5635C59.049 69.3037 60.4237 68.8528 61.8201 68.142C63.1876 67.4313 64.4253 66.5366 65.4608 65.4904C66.5216 64.4297 67.4201 63.1995 68.1129 61.8502C68.7948 60.4829 69.2495 59.0795 69.5345 57.5463C69.8196 56.031 69.8845 54.4509 69.9423 52.9573C69.9423 52.6073 69.9423 52.2285 69.9711 51.8966C69.9711 51.5467 70 51.1859 70 50.836V48.307V38.5806V31.4879V21.7472V19.1965C70 18.4858 70 17.7751 69.9711 17.0716C69.9387 15.7872 69.8629 14.1061 69.5887 12.4826Z" fill="white"/>
<path d="M45.7745 21.3965C48.6597 21.3965 50.9969 23.7358 50.9969 26.6203C50.9969 29.5055 48.659 31.8441 45.7745 31.8441C42.8886 31.8441 40.5507 29.5055 40.5507 26.6203C40.5507 23.7358 42.8893 21.3965 45.7745 21.3965ZM24.2242 21.3965C27.1094 21.3965 29.4486 23.7358 29.4486 26.6203C29.4486 29.5055 27.1094 31.8441 24.2242 31.8441C21.3396 31.8441 19.0004 29.5055 19.0004 26.6203C19.0011 23.7358 21.3396 21.3965 24.2242 21.3965ZM30.5794 35.7249C32.8982 35.7249 34.2473 37.158 34.5005 37.4521C34.7537 37.7489 35.3432 37.8745 35.7233 37.4521C36.1034 37.031 38.3799 35.7249 39.9809 35.7249C46.7271 35.7249 48.4966 43.9028 54.0186 43.9028C56.7796 43.9028 57.1945 43.0314 57.1945 41.8092C57.1945 40.2069 55.7041 39.4768 54.7767 39.4768C54.3652 39.4768 53.9756 39.4345 53.6385 39.8139C53.3014 40.1933 52.7534 40.151 52.881 39.4768C53.0073 38.8026 53.8077 38.3385 54.9037 38.3385C56.4077 38.3385 58.5156 39.6173 58.5156 41.7662C58.5156 43.9158 55.7457 48.6653 46.5579 48.6653C39.1101 48.6653 36.0605 45.5877 35.6817 44.9981C35.3023 44.4078 35.0075 44.4931 34.5858 44.9135C34.1641 45.3352 30.5808 48.6653 23.8359 48.6653C17.091 48.6653 11.4844 46.0517 11.4844 42.5947C11.4844 39.1376 14.1826 38.3372 15.4894 38.3372C16.7962 38.3372 17.3865 39.1799 17.3865 39.7702C17.3865 40.3605 16.8071 40.1605 16.5014 39.8548C16.3752 39.7279 16.1643 39.5177 15.574 39.5177C14.9837 39.5177 13.4238 40.4451 13.4238 41.6673C13.4238 42.8901 14.3969 43.7097 16.0381 43.8169C22.4861 44.2406 23.118 35.7249 30.5794 35.7249Z" fill="#4A4A4A"/>
</svg>
