<svg width="16" height="15" viewBox="0 0 16 15" fill="none" xmlns="http://www.w3.org/2000/svg">
<path fill-rule="evenodd" clip-rule="evenodd" d="M7.68555 0C3.442 0 0 3.44199 0 7.68555C0 11.0804 2.21608 13.9566 5.23372 14.9939C5.61092 15.0411 5.75238 14.8053 5.75238 14.6167C5.75238 14.4281 5.75238 13.9566 5.75238 13.2965C3.6306 13.768 3.15909 12.2592 3.15909 12.2592C2.82904 11.3633 2.31038 11.1275 2.31038 11.1275C1.60312 10.656 2.35753 10.656 2.35753 10.656C3.11194 10.7032 3.5363 11.4576 3.5363 11.4576C4.24356 12.6364 5.32802 12.3063 5.75238 12.1177C5.79953 11.5991 6.03528 11.269 6.22388 11.0804C4.52646 10.8918 2.73474 10.2317 2.73474 7.2612C2.73474 6.41249 3.01764 5.75238 3.5363 5.18657C3.442 4.99797 3.20624 4.1964 3.6306 3.15909C3.6306 3.15909 4.29071 2.97049 5.75238 3.96065C6.36533 3.77205 7.02545 3.7249 7.68555 3.7249C8.34566 3.7249 9.00577 3.8192 9.61873 3.96065C11.0804 2.97049 11.7405 3.15909 11.7405 3.15909C12.1649 4.1964 11.882 4.99797 11.8348 5.18657C12.3063 5.70523 12.6364 6.41249 12.6364 7.2612C12.6364 10.2317 10.8446 10.8446 9.14722 11.0332C9.43012 11.269 9.66588 11.7405 9.66588 12.4478C9.66588 13.4851 9.66588 14.2866 9.66588 14.5695C9.66588 14.7582 9.80733 14.9939 10.1845 14.9468C13.2493 13.9094 15.4183 11.0332 15.4183 7.6384C15.3711 3.442 11.9291 0 7.68555 0Z" fill="white"/>
</svg>
