<?xml version="1.0" encoding="UTF-8"?>
<svg width="30px" height="30px" viewBox="0 0 30 30" version="1.1" xmlns="http://www.w3.org/2000/svg" xmlns:xlink="http://www.w3.org/1999/xlink">
    <title>ipad</title>
    <g id="App-Store-Icons" stroke="none" stroke-width="1" fill="none" fill-rule="evenodd">
        <g id="Apple-platforms" transform="translate(-68.000000, -70.000000)">
            <g id="ipad" transform="translate(68.000000, 70.000000)">
                <rect id="Rectangle" fill-opacity="0" fill="#EFDBDB" x="0" y="0" width="30" height="30"></rect>
                <g transform="translate(7.000000, 4.000000)" fill="#000000" fill-rule="nonzero">
                    <rect id="Rectangle" opacity="0" x="0" y="0" width="16.6797" height="22.0215"></rect>
                    <path d="M1.57227,19.1602 L1.57227,2.85156 C1.57227,2.05078 2.06055,1.57227 2.90039,1.57227 L13.418,1.57227 C14.248,1.57227 14.7461,2.05078 14.7461,2.85156 L14.7461,19.1602 C14.7461,19.9609 14.248,20.4297 13.418,20.4297 L2.90039,20.4297 C2.06055,20.4297 1.57227,19.9609 1.57227,19.1602 Z" id="Path" fill-opacity="0.2125"></path>
                    <path d="M0,19.4238 C0,20.9668 1.08398,22.002 2.70508,22.002 L13.6133,22.002 C15.2344,22.002 16.3184,20.9668 16.3184,19.4238 L16.3184,2.58789 C16.3184,1.04492 15.2344,0 13.6133,0 L2.70508,0 C1.08398,0 0,1.04492 0,2.58789 L0,19.4238 Z M1.57227,19.1602 L1.57227,2.85156 C1.57227,2.05078 2.06055,1.57227 2.90039,1.57227 L13.418,1.57227 C14.248,1.57227 14.7461,2.05078 14.7461,2.85156 L14.7461,19.1602 C14.7461,19.9609 14.248,20.4297 13.418,20.4297 L2.90039,20.4297 C2.06055,20.4297 1.57227,19.9609 1.57227,19.1602 Z M5.39062,19.6875 L10.9277,19.6875 C11.2012,19.6875 11.3867,19.502 11.3867,19.2285 C11.3867,18.9551 11.2012,18.7793 10.9277,18.7793 L5.39062,18.7793 C5.12695,18.7793 4.94141,18.9551 4.94141,19.2285 C4.94141,19.502 5.12695,19.6875 5.39062,19.6875 Z" id="Shape" fill-opacity="0.85"></path>
                </g>
            </g>
        </g>
    </g>
</svg>