<?xml version="1.0" encoding="UTF-8"?>
<svg width="30px" height="30px" viewBox="0 0 30 30" version="1.1" xmlns="http://www.w3.org/2000/svg" xmlns:xlink="http://www.w3.org/1999/xlink">
    <title>iphone</title>
    <g id="App-Store-Icons" stroke="none" stroke-width="1" fill="none" fill-rule="evenodd">
        <g id="Apple-platforms" transform="translate(-22.000000, -70.000000)">
            <g id="iphone" transform="translate(22.000000, 70.000000)">
                <rect id="Rectangle" fill-opacity="0" fill="#EFDBDB" x="0" y="0" width="30" height="30"></rect>
                <g transform="translate(9.000000, 5.000000)" fill="#000000" fill-rule="nonzero">
                    <rect id="Rectangle" opacity="0" x="0" y="0" width="12.9102" height="20.6934"></rect>
                    <path d="M2.86133,19.1016 C2.03125,19.1016 1.57227,18.6621 1.57227,17.8809 L1.57227,2.79297 C1.57227,2.01172 2.03125,1.57227 2.86133,1.57227 L9.69727,1.57227 C10.5176,1.57227 10.9766,2.01172 10.9766,2.79297 L10.9766,17.8809 C10.9766,18.6621 10.5176,19.1016 9.69727,19.1016 L2.86133,19.1016 Z" id="Path" fill-opacity="0.2125"></path>
                    <path d="M2.65625,20.6738 L9.89258,20.6738 C11.4844,20.6738 12.5488,19.6582 12.5488,18.1348 L12.5488,2.53906 C12.5488,1.01562 11.4844,0 9.89258,0 L2.65625,0 C1.06445,0 0,1.01562 0,2.53906 L0,18.1348 C0,19.6582 1.06445,20.6738 2.65625,20.6738 Z M2.86133,19.1016 C2.03125,19.1016 1.57227,18.6621 1.57227,17.8809 L1.57227,2.79297 C1.57227,2.01172 2.03125,1.57227 2.86133,1.57227 L9.69727,1.57227 C10.5176,1.57227 10.9766,2.01172 10.9766,2.79297 L10.9766,17.8809 C10.9766,18.6621 10.5176,19.1016 9.69727,19.1016 L2.86133,19.1016 Z M4.20898,18.3887 L8.35938,18.3887 C8.62305,18.3887 8.80859,18.2031 8.80859,17.9297 C8.80859,17.6562 8.62305,17.4805 8.35938,17.4805 L4.20898,17.4805 C3.94531,17.4805 3.75,17.6562 3.75,17.9297 C3.75,18.2031 3.94531,18.3887 4.20898,18.3887 Z M5.09766,3.64258 L7.46094,3.64258 C7.8418,3.64258 8.14453,3.33984 8.14453,2.94922 C8.14453,2.56836 7.8418,2.26562 7.46094,2.26562 L5.09766,2.26562 C4.70703,2.26562 4.4043,2.56836 4.4043,2.94922 C4.4043,3.33984 4.70703,3.64258 5.09766,3.64258 Z" id="Shape" fill-opacity="0.85"></path>
                </g>
            </g>
        </g>
    </g>
</svg>