<svg width="16" height="15" viewBox="0 0 16 15" fill="none" xmlns="http://www.w3.org/2000/svg">
<path fill-rule="evenodd" clip-rule="evenodd" d="M3.56289 15V4.87901H0.198862V15H3.56289ZM1.88086 3.49716C3.05397 3.49716 3.78413 2.71998 3.78413 1.74873C3.76227 0.755615 3.05397 5.48546e-07 1.90312 5.48546e-07C0.752383 5.48546e-07 0 0.755615 0 1.74873C0 2.71998 0.730005 3.49716 1.85894 3.49716H1.8808H1.88086Z" fill="white"/>
<path fill-rule="evenodd" clip-rule="evenodd" d="M5.42432 15H8.78831V9.34801C8.78831 9.04552 8.81018 8.74334 8.89901 8.5271C9.14219 7.92273 9.69572 7.2968 10.625 7.2968C11.8423 7.2968 12.3293 8.22492 12.3293 9.58551V15H15.693V9.19677C15.693 6.08805 14.0334 4.64151 11.8201 4.64151C10.0053 4.64151 9.20859 5.65589 8.76594 6.34681H8.78841V4.87901H5.42441C5.46855 5.82869 5.42441 15 5.42441 15H5.42432Z" fill="white"/>
</svg>
