<?xml version="1.0" encoding="UTF-8"?>
<svg width="30px" height="30px" viewBox="0 0 30 30" version="1.1" xmlns="http://www.w3.org/2000/svg" xmlns:xlink="http://www.w3.org/1999/xlink">
    <title>macbook</title>
    <g id="App-Store-Icons" stroke="none" stroke-width="1" fill="none" fill-rule="evenodd">
        <g id="Apple-platforms" transform="translate(-114.000000, -70.000000)">
            <g id="macbook" transform="translate(114.000000, 70.000000)">
                <rect id="Rectangle" fill-opacity="0" fill="#EFDBDB" x="0" y="0" width="30" height="30"></rect>
                <g transform="translate(1.000000, 7.000000)" fill="#000000" fill-rule="nonzero">
                    <rect id="Rectangle" opacity="0" x="0" y="0" width="28.5254" height="15.9082"></rect>
                    <path d="M4.81445,13.6816 L4.81445,2.5293 C4.81445,1.9043 5.12695,1.5918 5.75195,1.5918 L22.4121,1.5918 C23.0371,1.5918 23.3496,1.9043 23.3496,2.5293 L23.3496,13.6816 L4.81445,13.6816 Z" id="Path" fill-opacity="0.2125"></path>
                    <path d="M11.1328,1.5918 L11.377,1.5918 C11.5234,1.5918 11.6016,1.66016 11.6016,1.82617 L11.6016,1.93359 C11.6016,2.34375 11.875,2.61719 12.2852,2.61719 L15.8984,2.61719 C16.2988,2.61719 16.5527,2.34375 16.5527,1.93359 L16.5527,1.82617 C16.5527,1.66016 16.6309,1.5918 16.7969,1.5918 L17.041,1.5918 L17.041,0.78125 L11.1328,0.78125 L11.1328,1.5918 Z M0,14.7949 C0,15.4102 0.498047,15.9082 1.10352,15.9082 L27.0605,15.9082 C27.666,15.9082 28.1641,15.4102 28.1641,14.7949 C28.1641,14.1797 27.666,13.6816 27.0605,13.6816 L24.9219,13.6816 L24.9219,2.08984 C24.9219,0.722656 24.1895,0.0195312 22.832,0.0195312 L5.33203,0.0195312 C4.04297,0.0195312 3.24219,0.722656 3.24219,2.08984 L3.24219,13.6816 L1.10352,13.6816 C0.498047,13.6816 0,14.1797 0,14.7949 Z M4.81445,13.6816 L4.81445,2.5293 C4.81445,1.9043 5.12695,1.5918 5.75195,1.5918 L22.4121,1.5918 C23.0371,1.5918 23.3496,1.9043 23.3496,2.5293 L23.3496,13.6816 L4.81445,13.6816 Z" id="Shape" fill-opacity="0.85"></path>
                </g>
            </g>
        </g>
    </g>
</svg>