<?xml version="1.0" encoding="UTF-8"?>
<svg width="30px" height="30px" viewBox="0 0 30 30" version="1.1" xmlns="http://www.w3.org/2000/svg" xmlns:xlink="http://www.w3.org/1999/xlink">
    <title>message</title>
    <g id="App-Store-Icons" stroke="none" stroke-width="1" fill="none" fill-rule="evenodd">
        <g id="Apple-platforms" transform="translate(-298.000000, -70.000000)">
            <g id="message" transform="translate(298.000000, 70.000000)">
                <rect id="Rectangle" fill-opacity="0" fill="#EFDBDB" x="0" y="0" width="30" height="30"></rect>
                <g transform="translate(4.000000, 5.000000)" fill="#000000" fill-rule="nonzero">
                    <rect id="Rectangle" opacity="0" x="0" y="0" width="22.5098" height="20.459"></rect>
                    <path d="M4.23828,20.459 C5.55664,20.459 8.25195,19.1309 10.2344,17.7148 C17.041,17.9004 22.1484,13.9941 22.1484,8.87695 C22.1484,3.96484 17.2266,0 11.0742,0 C4.92188,0 0,3.96484 0,8.87695 C0,12.0801 2.05078,14.9219 5.13672,16.3477 C4.69727,17.1973 3.87695,18.3496 3.4375,18.9258 C2.91992,19.6094 3.23242,20.459 4.23828,20.459 Z M5.26367,18.8379 C5.18555,18.8672 5.15625,18.8086 5.20508,18.7402 C5.75195,18.0664 6.5332,17.0508 6.86523,16.4258 C7.13867,15.918 7.07031,15.4688 6.44531,15.1758 C3.37891,13.75 1.62109,11.4746 1.62109,8.87695 C1.62109,4.87305 5.81055,1.61133 11.0742,1.61133 C16.3477,1.61133 20.5371,4.87305 20.5371,8.87695 C20.5371,12.8711 16.3477,16.1328 11.0742,16.1328 C10.8789,16.1328 10.5762,16.123 10.1855,16.1133 C9.77539,16.1133 9.46289,16.2402 9.0918,16.5332 C7.89062,17.4023 6.15234,18.4766 5.26367,18.8379 Z" id="Shape" fill-opacity="0.85"></path>
                </g>
            </g>
        </g>
    </g>
</svg>