<?xml version="1.0" encoding="UTF-8"?>
<svg width="40px" height="40px" viewBox="0 0 40 40" version="1.1" xmlns="http://www.w3.org/2000/svg" xmlns:xlink="http://www.w3.org/1999/xlink">
    <title>Artboard</title>
    <g id="Artboard" stroke="none" stroke-width="1" fill="none" fill-rule="evenodd">
        <g id="playdate" transform="translate(0.000000, 7.000000)" fill="#FFFFFF" fill-rule="nonzero">
            <g id="play" transform="translate(2.031881, 0.000000)">
                <path d="M3.97874601,3.74920298 C4.58357092,2.77426043 5.66784344,2.20205065 6.81402763,2.25292242 C9.45802338,2.25292242 10.8820404,4.59936238 10.8820404,7.24335813 C10.8820404,10.3379384 9.10945802,12.4250797 6.69075452,12.4250797 C5.61942284,12.461706 4.60105291,11.9589058 3.97874601,11.0860786 L3.97874601,14.4527099 L-7.55093237e-16,14.4527099 L-7.55093237e-16,2.48246546 L3.97874601,2.48246546 L3.97874601,3.74920298 Z M3.97874601,9.4325186 C4.27416571,9.68507361 4.64857563,9.82641711 5.03719447,9.83209352 C5.80233794,9.83209352 6.73751328,9.20722635 6.73751328,7.34537726 C6.73751328,6.04038257 6.31243358,4.87566419 5.08395324,4.87566419 C4.68797345,4.88862627 4.3053731,5.02209151 3.98724761,5.25823592 L3.97874601,9.4325186 Z" id="Shape"></path>
                <polygon id="Path" points="11.5961743 0 15.5961743 0 15.5961743 12.0085016 11.5961743 12.0085016"></polygon>
                <path d="M26.4484591,12.0085016 L22.4569607,12.0085016 L22.4569607,10.7332625 C21.8268486,11.7396636 20.7061209,12.3316544 19.5196599,12.2848034 C18.6741647,12.3343973 17.8475994,12.0213405 17.2470956,11.4240826 C16.6465918,10.8268247 16.3290595,10.0019684 16.3740701,9.15621679 C16.3740701,7.05207226 18.0743889,5.87035069 20.1445271,5.87035069 C20.9340639,5.87784151 21.7163745,6.0216486 22.4569607,6.29543039 C22.544171,5.5892457 22.2900537,4.8837152 21.7725824,4.39532412 C21.4121806,4.10538388 20.9596288,3.95453327 20.4973433,3.97024442 C19.2816153,3.97024442 18.5674814,4.68437832 18.0658874,5.18597237 L16.858661,4.20403826 C17.7088204,3.24760893 18.9458023,1.98087141 21.75983,1.98087141 C23.6556854,1.98087141 24.5398512,2.53772582 24.8544102,2.74601488 C26.4484591,3.74920298 26.4484591,5.17747078 26.4484591,6.21891605 L26.4484591,12.0085016 Z M22.4484591,7.92348565 C22.1709996,7.8486531 21.8855868,7.80726826 21.5982997,7.80021254 C20.5398512,7.80021254 20.2252922,8.49734325 20.2252922,8.96493092 C20.215922,9.23642944 20.3184803,9.49985899 20.5089589,9.69355243 C20.6994375,9.88724586 20.9611138,9.99419835 21.2327311,9.98937301 C21.7151728,9.96890145 22.1636349,9.73532742 22.4569607,9.35175345 L22.4484591,7.92348565 Z" id="Shape"></path>
                <path d="M26.24017,2.48246546 L30.4484591,2.48246546 C30.9883103,4.22104145 31.5961743,6.13390011 31.9107333,7.73219979 C32.3613177,6.09989373 32.4845909,5.75132837 33.6110521,2.48246546 L36.7906482,2.48246546 L33.088204,11.1540914 C32.5823592,12.2848034 31.9234857,13.781084 30.5377258,14.6652497 C29.151966,15.5494155 27.4601488,15.5536663 26.2316684,15.5154091 L26.2316684,14.0276302 C28.293305,13.8873539 28.9904357,12.6886291 29.8405951,11.1753454 L26.24017,2.48246546 Z" id="Path"></path>
            </g>
            <g id="date" transform="translate(0.000000, 13.177471)">
                <path d="M6.92029756,1.51018647e-15 L10.9202976,1.51018647e-15 L10.9202976,11.9022317 L6.92029756,11.9022317 L6.92029756,10.6524973 C6.31480958,11.6480015 5.21503915,12.2345457 4.05100956,12.1827843 C1.40701382,12.1827843 0,9.88735388 0,7.17534538 C0,4.46333688 1.40701382,1.94686504 4.11902232,1.94686504 C5.22640308,1.88839896 6.28497206,2.40803084 6.91604676,3.31987248 L6.92029756,1.51018647e-15 Z M6.92029756,4.93517535 C6.60869381,4.68486757 6.22318329,4.54441025 5.82359192,4.53560043 C4.88416578,4.53560043 4.12327311,5.424017 4.12327311,7.10733262 C4.12327311,8.44633369 4.66312434,9.48777896 5.77683316,9.48777896 C6.18082923,9.47591076 6.57306639,9.34909725 6.90754516,9.12221041 L6.92029756,4.93517535 Z" id="Shape"></path>
                <path d="M21.8108395,11.9022317 L17.8108395,11.9022317 L17.8108395,10.6269926 C17.1825454,11.6336687 16.0636135,12.227189 14.8777896,12.1827843 C14.0322943,12.2323782 13.2057291,11.9193213 12.6052253,11.3220635 C12.0047215,10.7248056 11.6871892,9.8999493 11.7321998,9.05419766 C11.7321998,6.95005313 13.4325186,5.76833156 15.5026567,5.76833156 C16.2921935,5.77582238 17.0745041,5.91962948 17.8150903,6.19341126 C17.8976824,5.48652573 17.6388193,4.78254428 17.1179596,4.29755579 C16.7575579,4.00761555 16.305006,3.85676494 15.8427205,3.87247609 C14.6269926,3.87247609 13.9128587,4.58660999 13.4112646,5.08820404 L12.229543,4.09776833 C13.0797024,3.141339 14.3166844,1.87460149 17.130712,1.87460149 C19.0265675,1.87460149 19.9107333,2.4314559 20.2252922,2.63974495 C21.8065887,3.64718385 21.8235919,5.07120085 21.8235919,6.11689692 L21.8108395,11.9022317 Z M17.8108395,7.82146652 C17.53338,7.74663397 17.2479673,7.70524913 16.9606801,7.69819341 C15.9022317,7.69819341 15.5876727,8.39532412 15.5876727,8.8629118 C15.5784476,9.13143286 15.6787099,9.39217989 15.8654619,9.58534396 C16.0522139,9.77850803 16.309429,9.8875123 16.5781084,9.88735405 C17.0671889,9.8642701 17.5199101,9.62229844 17.8108395,9.22848034 L17.8108395,7.82146652 Z" id="Shape"></path>
                <path d="M23.498406,0.884165781 L27.477152,0.884165781 L27.477152,3.21360255 L29.130712,3.21360255 L29.130712,5.49202976 L27.4814028,5.49202976 L27.4814028,8.70563231 C27.4814028,9.13071201 27.4814028,10.1679065 28.5951116,10.1679065 C28.8006772,10.1637913 29.004906,10.1337997 29.2029756,10.0786397 L29.6705632,11.3538789 C28.8415962,11.9558857 27.8427744,12.2789026 26.8182784,12.2763018 C25.8929353,12.3094471 24.9903229,11.9852372 24.2975558,11.370882 C23.5494155,10.6227418 23.498406,9.70031881 23.498406,8.88416578 L23.498406,5.48352816 L22.4399575,5.48352816 L22.4399575,3.21360255 L23.498406,3.21360255 L23.498406,0.884165781 Z" id="Path"></path>
                <path d="M39.6301807,9.7130712 C38.605589,11.291786 36.8358497,12.2265301 34.9543039,12.1827843 C31.5834219,12.1827843 29.5472901,10.0573858 29.5472901,7.08182784 C29.5472901,4.10626993 31.6004251,1.90860786 34.7290117,1.90860786 C35.7770283,1.88370858 36.8100442,2.16114715 37.7045696,2.7077577 C40,4.13177471 40,6.68650372 40,7.92348565 L33.5132837,7.92348565 C33.5507103,8.5859816 33.8888986,9.19503369 34.4314559,9.5770457 C34.9007526,9.9146722 35.4690043,10.0866431 36.0467588,10.0658874 C37.0357885,10.0265543 37.9621399,9.57109821 38.597237,8.81190223 L39.6301807,9.7130712 Z M36.1742827,5.95111583 C36.1402763,5.36025505 36.0680128,4.03825717 34.8012752,4.03825717 C33.6365569,4.03825717 33.4622742,5.2922423 33.3772582,5.95111583 L36.1742827,5.95111583 Z" id="Shape"></path>
            </g>
        </g>
    </g>
</svg>