<?xml version="1.0" encoding="UTF-8"?>
<svg width="1024px" height="1024px" viewBox="0 0 1024 1024" version="1.1" xmlns="http://www.w3.org/2000/svg" xmlns:xlink="http://www.w3.org/1999/xlink">
    <title>Swift Playgrounds</title>
    <defs>
        <path d="M1023.92716,283.628335 C1023.86605,273.329778 1023.75257,263.036071 1023.46936,252.725876 C1022.86898,230.298534 1021.54311,207.666539 1017.55676,185.477796 C1013.51221,162.944733 1006.9003,141.991662 996.478568,121.522578 C986.248875,101.420121 972.876659,83.0256854 956.923498,67.0725251 C940.974218,51.1203347 922.579782,37.7500578 902.468596,27.5155158 C882.016971,17.1063891 861.060989,10.4964191 838.548295,6.450904 C816.347912,2.45291478 793.715918,1.13577035 771.271117,0.529573536 C760.965772,0.250238044 750.670125,0.132878341 740.368659,0.0698338728 C728.142881,0 715.906435,0 703.681628,0 L432.615631,0 L320.318884,0 C308.082437,0 295.85957,0 283.634762,0.0698338728 C273.330386,0.133848256 263.022131,0.250238044 252.732304,0.529573536 C247.122316,0.68088026 241.499719,0.87680307 235.874213,1.14837924 C218.997693,1.96213784 202.096926,3.45289705 185.455126,6.450904 C168.570848,9.48576773 152.560463,13.961925 136.983629,20.4021599 C131.790705,22.5485816 126.646276,24.914204 121.532885,27.5164857 C106.449738,35.1923922 92.3277774,44.632574 79.4841642,55.6023115 C75.2029599,59.2588907 71.0633631,63.0852049 67.0770128,67.073495 C51.1219127,83.0266553 37.7487261,101.420121 27.5200035,121.523548 C17.0992379,141.992632 10.4950873,162.945703 6.44666251,185.478766 C2.46322201,207.667509 1.14025809,230.299504 0.536971017,252.726846 C0.253755866,263.037041 0.134456334,273.329778 0.0675322054,283.629305 C-0.0110309015,295.857022 0,308.091528 0,320.319245 L0,487.251299 L0,703.67811 C0,715.917466 -0.0110309015,728.139364 0.0675322054,740.37969 C0.134456334,750.679216 0.253755866,760.971953 0.536971017,771.26469 C1.14025809,793.704641 2.46322201,816.342455 6.44666251,838.519559 C10.4950873,861.046802 17.0982679,882.017332 27.5200035,902.480597 C37.7487261,922.587903 51.1219127,940.977489 67.0770128,956.92386 C83.020474,972.88284 101.42073,986.253117 121.532885,996.493478 C141.98742,1006.90357 162.940492,1013.50676 185.459006,1017.5513 C207.64484,1021.54444 230.294292,1022.87225 252.733273,1023.47263 C263.023101,1023.74615 273.331356,1023.86933 283.635732,1023.92752 C295.86054,1024.01481 308.083407,1024.00369 320.319853,1024.00369 L703.681628,1024.00369 C715.906435,1024.00369 728.142881,1024.01481 740.368659,1023.92752 C750.670125,1023.86836 760.965772,1023.74615 771.271117,1023.47263 C793.715918,1022.87225 816.347912,1021.54347 838.548295,1017.5513 C861.060019,1013.50676 882.016971,1006.90357 902.468596,996.493478 C922.579782,986.253117 940.974218,972.88284 956.923498,956.92386 C972.876659,940.977489 986.248875,922.588873 996.478568,902.480597 C1006.89933,882.017332 1013.51221,861.045832 1017.55676,838.519559 C1021.54408,816.342455 1022.86995,793.704641 1023.46936,771.26469 C1023.75257,760.971953 1023.86605,750.679216 1023.92716,740.37969 C1024,728.140333 1024,715.918436 1024,703.67811 L1024,320.319245 C1024,308.090558 1024,295.857022 1023.92716,283.628335 Z" id="path-1"></path>
        <linearGradient x1="50%" y1="0%" x2="50%" y2="100%" id="linearGradient-3">
            <stop stop-color="#FCFBFA" offset="0%"></stop>
            <stop stop-color="#F5F2F0" offset="100%"></stop>
        </linearGradient>
        <linearGradient x1="90.2088342%" y1="50%" x2="10.0025159%" y2="50%" id="linearGradient-4">
            <stop stop-color="#FADCC6" offset="0%"></stop>
            <stop stop-color="#FEFBF7" offset="100%"></stop>
        </linearGradient>
        <linearGradient x1="50%" y1="0%" x2="50%" y2="100%" id="linearGradient-5">
            <stop stop-color="#F8A934" offset="0%"></stop>
            <stop stop-color="#F54233" offset="100%"></stop>
        </linearGradient>
    </defs>
    <g id="Page-1" stroke="none" stroke-width="1" fill="none" fill-rule="evenodd">
        <g id="Swift-Playgrounds">
            <g id="Group">
                <mask id="mask-2" fill="white">
                    <use xlink:href="#path-1"></use>
                </mask>
                <use id="Icon-Mask" fill="#FFFFFF" fill-rule="nonzero" xlink:href="#path-1"></use>
                <rect id="Background" fill="url(#linearGradient-3)" mask="url(#mask-2)" x="-3.73061225e-05" y="0" width="1024" height="1024"></rect>
                <polygon id="Dash" fill="url(#linearGradient-4)" mask="url(#mask-2)" transform="translate(321.556281, 348.692357) rotate(-315.000000) translate(-321.556281, -348.692357) " points="-145.191367 23.6923573 503.372768 23.6923573 788.303929 199.238343 780.163867 474.601443 515.744211 673.692357 -145.191367 673.692357"></polygon>
            </g>
            <path d="M703.681628,1.5 C715.90358,1.5 728.137169,1.49999184 740.359479,1.56980578 C750.650456,1.63278606 760.93562,1.74997172 771.23062,2.02902675 C793.600039,2.63318763 816.156453,3.94256478 838.282995,7.92725633 C860.649074,11.9464246 881.469541,18.5108741 901.788276,28.8523647 C921.758975,39.0154131 940.024879,52.2923369 955.862838,68.1331853 C971.70457,83.9749167 984.983463,102.240822 995.141852,122.20316 C1005.49579,142.539089 1012.06216,163.356576 1016.0804,185.743034 C1020.0534,207.857477 1021.37153,230.41394 1021.96993,252.767065 C1022.25284,263.066487 1022.36615,273.349439 1022.42719,283.637269 C1022.50001,295.862979 1022.5,308.093536 1022.5,320.319245 L1022.5,320.319245 L1022.5,703.67811 C1022.5,715.915459 1022.50001,728.134384 1022.42719,740.370791 C1022.36615,750.659525 1022.25285,760.941479 1021.96989,771.224637 C1021.3725,793.589191 1020.05438,816.151368 1016.08037,838.254476 C1012.06218,860.633954 1005.49488,881.469762 995.141628,901.800455 C984.983463,921.768131 971.70467,940.02811 955.862516,955.863522 C940.024634,971.711036 921.758689,984.987948 901.788157,995.15669 C881.469525,1005.49909 860.648118,1012.05674 838.282816,1016.07498 C816.156831,1020.05377 793.600427,1021.37481 771.23132,1021.97316 C760.936373,1022.2464 750.651115,1022.36844 740.357949,1022.42756 C729.37716,1022.50596 718.387761,1022.50493 707.40588,1022.50392 L308.352831,1022.50344 C300.114968,1022.50048 291.880656,1022.48636 283.644203,1022.42755 C273.350294,1022.36941 263.052507,1022.2464 252.773393,1021.97317 C230.409853,1021.37481 207.836124,1020.05477 185.724178,1016.07493 C163.352345,1012.05673 142.534783,1005.49906 122.213486,995.156773 C102.241893,984.98798 83.9702237,971.711161 68.1373827,955.86291 C52.2938763,940.028072 39.014141,921.76716 28.8566406,901.799861 C18.5026713,881.469657 11.9450638,860.634736 7.92303533,838.254374 C3.95291914,816.15145 2.63769387,793.589102 2.03640349,771.223431 C1.75347731,760.941196 1.63435638,750.65896 1.56750131,740.370062 C1.49757257,729.474992 1.49865847,718.594527 1.49973482,707.703294 L1.49973482,707.703294 L1.49948129,312.981862 C1.4991715,303.201178 1.5046715,293.417888 1.56750054,283.639051 C1.63435657,273.350005 1.75347842,263.06774 2.03642862,252.767181 C2.63769449,230.414977 3.95293534,207.858385 7.92302339,185.744018 C11.9450837,163.357697 18.5037209,142.540101 28.8569028,122.203769 C39.0141594,102.240801 52.2939909,83.975911 68.137931,68.1338972 C72.0964135,64.1734883 76.2070741,60.373926 80.4583494,56.7429092 C93.2122087,45.8498305 107.235469,36.4755968 122.213223,28.8533254 C127.291089,26.2691231 132.399769,23.9199186 137.55675,21.7883534 C153.034597,15.3890445 168.943616,10.942803 185.721069,7.92714057 C202.298909,4.94065602 219.134871,3.45726612 235.946542,2.64663437 C241.561408,2.37557191 247.17337,2.18004877 252.773009,2.02902113 C263.052385,1.74996936 273.350171,1.63375429 283.643331,1.5698094 C295.865283,1.49999184 308.085295,1.5 320.318884,1.5 L320.318884,1.5 Z" id="Icon-Border" stroke="#EEEEFF" stroke-width="3" fill-rule="nonzero"></path>
            <path d="M811.405226,632.093541 C811.380978,632.063473 811.35867,632.041165 811.334422,632.011098 C812.468253,628.156656 813.63603,624.324522 814.627283,620.373089 C857.128954,451.045346 753.400435,250.850061 577.871056,145.443589 C654.792097,249.72011 688.804103,376.022428 658.586404,486.476337 C655.891981,496.327763 652.650525,505.784433 649.068629,514.974377 C645.18218,512.42156 640.28702,509.521515 633.710997,505.896943 C633.710997,505.896943 459.105947,398.088962 269.861971,207.405632 C264.896006,202.398932 370.775797,358.735635 490.934674,485.683916 C434.322681,453.913384 276.553414,339.122016 176.677397,247.709476 C188.94973,268.173711 203.544039,287.878502 219.586432,306.850037 C302.994264,412.626046 411.76537,543.138765 542.081196,643.355222 C450.52026,699.387206 321.144281,703.744064 192.329883,643.412447 C160.469149,628.480608 130.516237,610.464438 102.790249,589.995354 C157.317895,677.212042 241.297007,752.462889 343.507609,796.392275 C465.397784,848.773499 586.609019,845.221671 676.885789,797.24968 L676.814985,797.353461 C677.121478,797.159478 677.466768,796.957735 677.78199,796.761813 C681.834294,794.590173 685.842953,792.356459 689.766259,790.005385 C733.367813,767.6149 818.469116,745.523148 864.199634,834.497322 C875.456466,856.394121 899.388146,740.350592 811.405226,632.093541 Z" id="Swift-Path" fill="url(#linearGradient-5)" fill-rule="nonzero"></path>
        </g>
    </g>
</svg>