<?xml version="1.0" encoding="UTF-8"?>
<svg width="40px" height="40px" viewBox="0 0 40 40" version="1.1" xmlns="http://www.w3.org/2000/svg" xmlns:xlink="http://www.w3.org/1999/xlink">
    <title>swift-playgrounds</title>
    <g id="Page-1" stroke="none" stroke-width="1" fill="none" fill-rule="evenodd">
        <path d="M28.2040714,0.000336751838 L28.9206961,0.00269401471 C29.3231146,0.00518597831 29.7252636,0.00976580332 30.1278167,0.0206765629 C31.0045838,0.0443838923 31.8886248,0.0958395732 32.7558281,0.252025076 C33.6352218,0.410029039 34.4537982,0.668250348 35.2527083,1.07484452 C36.038283,1.4746363 36.756844,1.9969384 37.3798349,2.620064 C38.0029605,3.24318961 38.52533,3.96175068 38.9249197,4.74698862 C39.3319853,5.54657218 39.590274,6.36501385 39.748278,7.2452158 C39.903992,8.11194769 39.9557845,8.99598861 39.9792224,9.8720822 C39.9903352,10.2748374 39.9947803,10.6769191 39.9971376,11.0792028 C39.9999288,11.556919 39.9999288,12.0347699 39.9999288,12.5124187 L39.9999288,12.5124187 L39.9999288,27.4873688 C39.9999288,27.9654891 39.9999288,28.4428685 39.9970702,28.9209887 C39.9946456,29.3233398 39.9902005,29.7253542 39.979155,30.1274359 C39.9557171,31.0040009 39.9039247,31.8882439 39.7482106,32.7545717 C39.5902067,33.6345716 39.331918,34.4536867 38.9248524,35.2530683 C38.52533,36.0385082 38.0028932,36.7567999 37.3797676,37.3797235 C36.7567767,38.0031185 36.0382156,38.5254206 35.2526409,38.9254144 C34.4537309,39.3320086 33.6351545,39.5899605 32.7557607,39.7479645 C31.8885574,39.9038806 31.0045165,39.9558077 30.1277494,39.9792456 C29.7251962,39.9899543 29.3230472,39.9947362 28.9206288,39.9970261 C28.4430473,40.000461 27.9650617,40.0000114 27.4875476,40.0000114 L27.4875476,40.0000114 L12.5124628,40.0000114 C12.0344772,40.0000114 11.5570305,40.000461 11.0795164,39.9970261 C10.6769632,39.9947362 10.2743427,39.9899543 9.87239571,39.9792456 C8.99583068,39.9558077 8.11111625,39.9039479 7.24445172,39.7479645 C6.36485591,39.5899605 5.5463469,39.3320759 4.74736948,38.9254144 C3.96172744,38.5253532 3.24296432,38.0031185 2.62017547,37.3797235 C1.99691517,36.7568673 1.47454572,36.0385082 1.07495598,35.2530683 C0.667890361,34.4536867 0.409938453,33.6345042 0.25179979,32.7545717 C0.0961530901,31.8882439 0.0444953581,31.0040009 0.0209227294,30.1274359 C0.00987726906,29.7253542 0.00523009369,29.3232725 0.00260342935,28.9209887 C-0.000494687565,28.4428685 -4.89029646e-05,27.9654891 -4.89029646e-05,27.4873688 L0.000282638575,11.7958276 L0.000282638575,11.7958276 L0.00260342935,11.0791355 C0.00523009369,10.6768517 0.00987726906,10.27477 0.0209227294,9.87201485 C0.0444953581,8.99592126 0.0962204404,8.11188034 0.25179979,7.24514845 C0.409938453,6.3649465 0.667890361,5.54650483 1.07495598,4.74692127 C1.47454572,3.96168333 1.99691517,3.24312226 2.62017547,2.61999665 C2.77588952,2.46421525 2.93759775,2.31476479 3.10482872,2.17191466 C3.6065216,1.74343162 4.15812112,1.37468836 4.74730213,1.07484452 C4.94706332,0.973212813 5.14803682,0.880808109 5.35082878,0.797024251 C5.959272,0.545470628 6.58468751,0.370629073 7.24424966,0.252092426 C7.89431541,0.134970137 8.55455107,0.0767120688 9.21377647,0.0449226953 C9.43354072,0.0343486875 9.65317027,0.0266707456 9.87232836,0.0207439132 C10.2742754,0.00983315368 10.6768959,0.00525332868 11.079449,0.00276136508 C11.5569631,0 12.0344099,0 12.5123954,0 L28.2040714,0.000336751838 L28.2040714,0.000336751838 Z M22.5729913,5.68134027 C25.5776933,9.75462315 26.9062466,14.688307 25.7258641,19.0029062 C25.6205954,19.3877462 25.4940441,19.7570957 25.3541574,20.1160731 C25.2023497,20.0163272 25.0110746,19.9031113 24.7542003,19.7614734 C24.7542003,19.7614734 17.9336959,15.550257 10.5413869,8.10164308 C10.5159483,8.07600136 10.5649813,8.15875851 10.6799774,8.33310892 L10.8367275,8.56700782 C11.8571771,10.0712708 15.3296768,14.90722 19.1769837,18.9719251 C16.9656017,17.7308599 10.8027737,13.2468744 6.90130159,9.67602528 C7.38063416,10.4754068 7.95075502,11.2451541 8.57745019,11.9862102 C11.8355242,16.1180879 16.0844569,21.216174 21.174865,25.1309142 C17.5982911,27.3196664 12.5445216,27.4898608 7.51270823,25.1332041 C6.26814079,24.5499499 5.0981302,23.8462059 4.01506894,23.0466223 C6.14502431,26.4535407 9.42545867,29.3929801 13.4180558,31.1090001 C18.1793901,33.1551717 22.9141883,33.0164299 26.4406535,31.1425406 L26.4378922,31.1465816 L26.4911663,31.1149943 L26.4911663,31.1149943 C26.6359696,31.0371373 26.7796953,30.9578659 26.9202555,30.8741494 C28.6145887,29.9946883 31.9612285,29.1024306 33.7575301,32.5975106 C34.1974627,33.4528603 35.1322858,28.9199111 31.6954639,24.6911162 C31.694521,24.6899039 31.6936454,24.6890284 31.6926352,24.6878834 C31.7368844,24.537288 31.7825479,24.3876355 31.8212744,24.2332684 C33.481461,17.6188562 29.4295955,9.798805 22.5729913,5.68134027 Z" id="swift-playgrounds" fill="#FFFFFF" fill-rule="nonzero"></path>
    </g>
</svg>