<svg width="40" height="40" viewBox="0 0 40 40" fill="none" xmlns="http://www.w3.org/2000/svg">
<g clip-path="url(#clip0_710:1242)">
<path d="M36.6392 27.0492C36.7326 26.8623 36.7326 26.6754 36.8261 26.4884C39.0693 17.7025 33.7417 7.4211 24.5819 2C28.601 7.4211 30.1899 13.8703 28.7879 19.6653C28.6945 20.1327 28.5075 20.6935 28.3206 21.1608C28.1336 21.0673 27.8532 20.8804 27.5728 20.6935C27.5728 20.6935 18.5065 15.0854 8.78592 5.27136C8.50552 4.99095 14.0201 13.1226 20.1889 19.5719C17.2914 17.8894 9.06633 12.001 3.92563 7.23417C4.48643 8.26231 5.32763 9.29045 6.16884 10.3186C10.4683 15.8332 16.0764 22.5628 22.806 27.7035C18.0392 30.601 11.403 30.7879 4.67336 27.7035C2.99095 26.9558 1.58894 26.0211 0 24.8995C2.80402 29.2925 7.19698 33.3115 12.4311 35.4613C18.6935 38.1718 25.0492 37.9849 29.6291 35.4613C29.6291 35.4613 29.6291 35.4613 29.7226 35.4613C29.9095 35.3678 30.0965 35.2744 30.2834 35.0874C32.5266 33.9658 36.9196 32.7507 39.3497 37.4241C40.004 38.7326 41.2191 32.6573 36.6392 27.0492Z" fill="white"/>
</g>
<defs>
<clipPath id="clip0_710:1242">
<rect width="40" height="40" fill="white"/>
</clipPath>
</defs>
</svg>
