<?xml version="1.0" encoding="UTF-8"?>
<svg width="30px" height="30px" viewBox="0 0 30 30" version="1.1" xmlns="http://www.w3.org/2000/svg" xmlns:xlink="http://www.w3.org/1999/xlink">
    <title>tv</title>
    <g id="App-Store-Icons" stroke="none" stroke-width="1" fill="none" fill-rule="evenodd">
        <g id="Apple-platforms" transform="translate(-160.000000, -70.000000)">
            <g id="tv" transform="translate(160.000000, 70.000000)">
                <rect id="Rectangle" fill-opacity="0" fill="#EFDBDB" x="0" y="0" width="30" height="30"></rect>
                <g transform="translate(3.000000, 5.000000)" fill="#000000" fill-rule="nonzero">
                    <rect id="Rectangle" opacity="0" x="0" y="0" width="24.7754" height="19.541"></rect>
                    <path d="M2.53906,14.6484 C1.93359,14.6484 1.57227,14.2871 1.57227,13.6914 L1.57227,2.5293 C1.57227,1.93359 1.93359,1.57227 2.53906,1.57227 L21.875,1.57227 C22.4805,1.57227 22.8418,1.93359 22.8418,2.5293 L22.8418,13.6914 C22.8418,14.2871 22.4805,14.6484 21.875,14.6484 L2.53906,14.6484 Z" id="Path" fill-opacity="0.2125"></path>
                    <path d="M2.50977,16.2207 L21.9043,16.2207 C23.4668,16.2207 24.4141,15.2637 24.4141,13.7109 L24.4141,2.50977 C24.4141,0.957031 23.4668,0 21.9043,0 L2.50977,0 C0.957031,0 0,0.957031 0,2.50977 L0,13.7109 C0,15.2637 0.957031,16.2207 2.50977,16.2207 Z M2.53906,14.6484 C1.93359,14.6484 1.57227,14.2871 1.57227,13.6914 L1.57227,2.5293 C1.57227,1.93359 1.93359,1.57227 2.53906,1.57227 L21.875,1.57227 C22.4805,1.57227 22.8418,1.93359 22.8418,2.5293 L22.8418,13.6914 C22.8418,14.2871 22.4805,14.6484 21.875,14.6484 L2.53906,14.6484 Z M7.29492,19.5312 L17.1191,19.5312 C17.5488,19.5312 17.9102,19.1797 17.9102,18.7402 C17.9102,18.3008 17.5488,17.9492 17.1191,17.9492 L7.29492,17.9492 C6.86523,17.9492 6.50391,18.3008 6.50391,18.7402 C6.50391,19.1797 6.86523,19.5312 7.29492,19.5312 Z" id="Shape" fill-opacity="0.85"></path>
                </g>
            </g>
        </g>
    </g>
</svg>