<svg width="19" height="15" viewBox="0 0 19 15" fill="none" xmlns="http://www.w3.org/2000/svg">
<path d="M5.80541 15C12.7716 15 16.5818 9.22855 16.5818 4.22358C16.5818 4.05965 16.5818 3.89647 16.5708 3.73401C17.312 3.19786 17.9519 2.534 18.4604 1.77352C17.7691 2.07982 17.0358 2.28069 16.285 2.36942C17.0756 1.89609 17.6674 1.15161 17.9501 0.274543C17.2066 0.715712 16.3933 1.02663 15.5451 1.19387C14.9741 0.586659 14.2188 0.18458 13.3962 0.0498528C12.5736 -0.0848747 11.7296 0.0552603 10.9947 0.448572C10.2597 0.841884 9.67494 1.46645 9.33074 2.22561C8.98655 2.98477 8.90215 3.83621 9.09062 4.64817C7.58481 4.57268 6.1117 4.18137 4.76694 3.49963C3.42217 2.8179 2.2358 1.86098 1.28484 0.691008C0.800509 1.5248 0.652168 2.51184 0.870021 3.45116C1.08787 4.39048 1.65554 5.21145 2.45744 5.74693C1.85471 5.72907 1.26511 5.56647 0.738414 5.27287C0.738414 5.28838 0.738414 5.30462 0.738414 5.32087C0.738654 6.19531 1.04136 7.04275 1.59518 7.71946C2.14901 8.39616 2.91986 8.86046 3.77699 9.03361C3.21939 9.18568 2.63435 9.20791 2.06682 9.09859C2.30884 9.85116 2.78003 10.5093 3.41448 10.9809C4.04893 11.4525 4.81491 11.714 5.6053 11.7288C4.26415 12.7829 2.60738 13.3551 0.901604 13.3533C0.60026 13.3528 0.299208 13.3345 0 13.2987C1.73205 14.4102 3.74739 14.9998 5.80541 14.997" fill="white"/>
</svg>
