<svg width="70" height="70" viewBox="0 0 70 70" fill="none" xmlns="http://www.w3.org/2000/svg">
<path d="M69.5887 12.4826C69.3289 10.9493 68.8598 9.52791 68.167 8.17863C67.4562 6.81132 66.5613 5.57388 65.5149 4.53847C64.4541 3.47781 63.2237 2.5795 61.8742 1.88682C60.5067 1.20497 59.1031 0.750399 57.5696 0.465392C56.0541 0.180384 54.4737 0.115446 52.9799 0.057723C52.6299 0.057723 52.251 0.057723 51.9191 0.0288615C51.5691 0.0288615 51.2082 0 50.8582 0H48.3289H38.5938H31.4928H21.7469H19.1959C18.4851 0 17.7742 0 17.0706 0.0288615C15.7969 0.0757615 14.0866 0.147915 12.4809 0.43653C10.9474 0.696284 9.57268 1.14725 8.17629 1.85796C6.80876 2.56868 5.57113 3.46338 4.53557 4.50961C3.47474 5.57027 2.57629 6.8005 1.88351 8.14977C1.20515 9.51709 0.754124 10.9205 0.465464 12.4537C0.180412 13.969 0.115464 15.5491 0.057732 17.0427C0.057732 17.3927 0.057732 17.7715 0.028866 18.1034C0.028866 18.4533 0 18.8141 0 19.164V21.693V31.4374V38.5301V48.2745V50.8035C0 51.5142 0 52.2249 0.028866 52.9284C0.0757732 54.2019 0.147938 55.912 0.436598 57.5174C0.696392 59.0507 1.16546 60.4721 1.85825 61.8214C2.56907 63.1887 3.46392 64.4261 4.51031 65.4615C5.57113 66.5222 6.80155 67.4205 8.15103 68.1132C9.51856 68.795 10.9222 69.2496 12.4557 69.5346C13.9711 69.8196 15.5515 69.8846 17.0454 69.9423C17.3954 69.9423 17.7742 69.9423 18.1062 69.9711C18.4562 69.9711 18.817 70 19.167 70H21.6964H31.4423H47.5892H48.2711H50.8005C51.5113 70 52.2222 70 52.9258 69.9711C54.1995 69.9242 55.9098 69.8521 57.5155 69.5635C59.049 69.3037 60.4237 68.8528 61.8201 68.142C63.1876 67.4313 64.4253 66.5366 65.4608 65.4904C66.5216 64.4297 67.4201 63.1995 68.1129 61.8502C68.7948 60.4829 69.2495 59.0795 69.5345 57.5463C69.8196 56.031 69.8845 54.4509 69.9423 52.9573C69.9423 52.6073 69.9423 52.2285 69.9711 51.8966C69.9711 51.5467 70 51.1859 70 50.836V48.307V38.5806V31.4879V21.7472V19.1965C70 18.4858 70 17.7751 69.9711 17.0716C69.9387 15.7872 69.8629 14.1061 69.5887 12.4826Z" fill="#333333"/>
<path fill-rule="evenodd" clip-rule="evenodd" d="M42.5205 50.0419L39.9275 43.9309C41.7169 42.9425 43.1771 41.4306 44.1041 39.6033L50.3012 41.9828C48.7027 45.4741 45.9446 48.3257 42.5205 50.0419ZM35.0226 51.7924C33.4654 51.7924 31.9589 51.5764 30.5263 51.1806L32.694 44.9087C33.4426 45.0836 34.2215 45.1789 35.0226 45.1789C36.0727 45.1789 37.0857 45.0197 38.04 44.7254L40.6407 50.8295C38.8825 51.4508 36.9922 51.7924 35.0226 51.7924ZM20.2175 42.9948L26.2453 40.1869C27.2949 41.9383 28.8563 43.3484 30.7208 44.2133L28.5555 50.4957C24.9964 49.016 22.0506 46.3508 20.2175 42.9948ZM18.9844 29.9428L25.1933 32.3271C24.9618 33.179 24.8362 34.0741 24.8362 34.9982C24.8362 36.1722 25.038 37.2991 25.4043 38.3494L19.3803 41.1594C18.6265 39.2496 18.2076 37.1728 18.2076 34.9982C18.2076 33.2374 18.4807 31.5393 18.9844 29.9428ZM27.4795 19.9581L30.0725 26.0692C28.2831 27.0577 26.8229 28.5697 25.8956 30.3967L19.6988 28.0174C21.297 24.5259 24.0551 21.6743 27.4795 19.9581ZM35.0419 18.2076C36.5992 18.2076 38.106 18.4236 39.5385 18.8194L37.3706 25.0913C36.6222 24.9164 35.8433 24.8211 35.0419 24.8211C33.9921 24.8211 32.9788 24.98 32.0249 25.2746L29.4241 19.1705C31.1823 18.5492 33.0724 18.2076 35.0419 18.2076ZM49.7825 27.0055L43.7549 29.8131C42.705 28.062 41.1439 26.6516 39.2792 25.7866L41.4447 19.5043C45.0037 20.9839 47.9494 23.6488 49.7825 27.0055ZM42.1343 38.8411C41.4266 40.1503 40.3682 41.2423 39.087 41.9941C38.4986 42.3392 37.8631 42.6118 37.1927 42.8004C36.4948 42.997 35.76 43.1045 34.9999 43.1045C34.4367 43.1045 33.8869 43.0463 33.3558 42.9365C32.6717 42.7949 32.0196 42.5659 31.41 42.2632C30.0747 41.6006 28.9477 40.5802 28.1535 39.3283C27.7875 38.7516 27.4917 38.1268 27.2799 37.4642C27.0311 36.6866 26.8955 35.8591 26.8955 34.9999C26.8955 34.3386 26.9769 33.6963 27.1271 33.0804C27.2922 32.4028 27.5416 31.758 27.8654 31.1586C28.5731 29.8494 29.6316 28.7574 30.913 28.0059C31.5014 27.6608 32.1366 27.3882 32.807 27.1994C33.5052 27.003 34.24 26.8955 34.9999 26.8955C35.5631 26.8955 36.1128 26.9534 36.6439 27.0635C37.328 27.2048 37.9801 27.4341 38.5897 27.7365C39.925 28.3994 41.0523 29.4195 41.8468 30.6717C42.2125 31.2484 42.5083 31.8732 42.7201 32.5358C42.9689 33.3131 43.1045 34.1412 43.1045 34.9999C43.1045 35.6614 43.0231 36.3037 42.8729 36.9193C42.7075 37.5972 42.4584 38.242 42.1343 38.8411ZM51.0158 40.0572L44.8064 37.6729C45.0379 36.821 45.1638 35.9259 45.1638 35.0015C45.1638 33.8281 44.962 32.7009 44.5957 31.6509L50.6196 28.8406C51.3735 30.7504 51.7924 32.8275 51.7924 35.0015C51.7924 36.7626 51.5196 38.4606 51.0158 40.0572ZM34.9999 16.1328C24.5965 16.1328 16.1328 24.5966 16.1328 34.9998C16.1328 45.4032 24.5965 53.8672 34.9999 53.8672C45.4032 53.8672 53.8672 45.4032 53.8672 34.9998C53.8672 24.5966 45.4032 16.1328 34.9999 16.1328Z" fill="#F1BA2F"/>
</svg>
