<svg width="23" height="15" viewBox="0 0 23 15" fill="none" xmlns="http://www.w3.org/2000/svg">
<path d="M16.4485 4.39341C16.4485 4.39341 14.6937 9.90468 14.5507 10.3596C14.4988 9.89168 13.2119 0 13.2119 0C10.2223 0 8.62353 2.13172 7.77865 4.38042C7.77865 4.38042 5.64693 9.90468 5.46495 10.3726C5.45196 9.94368 5.14 4.44541 5.14 4.44541C4.95802 1.68977 2.43636 0.0129981 0.39563 0.0129981L2.8653 15C5.99788 14.987 7.68766 12.8683 8.57154 10.6196C8.57154 10.6196 10.4563 5.74523 10.5343 5.52426C10.5473 5.73224 11.8861 15 11.8861 15C15.0317 15 16.7215 13.0113 17.6313 10.8406L22.0377 0.0129981C18.9312 0.0129981 17.2934 2.13172 16.4485 4.39341Z" fill="white"/>
</svg>
