<svg width="40" height="40" viewBox="0 0 40 40" fill="none" xmlns="http://www.w3.org/2000/svg">
<path fill-rule="evenodd" clip-rule="evenodd" d="M6 0C2.68629 0 0 2.68629 0 6V34C0 37.3137 2.68629 40 6 40H34C37.3137 40 40 37.3137 40 34V6C40 2.68629 37.3137 0 34 0H6ZM23.6973 23.0548C23.8559 22.5254 25.8018 16.1123 25.8018 16.1123C26.7387 13.4805 28.555 11.0151 32 11.0151L27.1135 23.6145C26.1045 26.1404 24.2306 28.4545 20.7423 28.4545C20.7423 28.4545 19.2577 17.6702 19.2432 17.4282C19.1568 17.6854 17.0667 23.3573 17.0667 23.3573C16.0865 25.974 14.2126 28.4394 10.7387 28.4545L8 11.0151C10.2631 11.0151 13.0595 12.9663 13.2613 16.1728C13.2613 16.1728 13.6072 22.5708 13.6216 23.07C13.8234 22.5254 16.1874 16.0972 16.1874 16.0972C17.1243 13.4805 18.8973 11 22.2126 11C22.2126 11 23.6396 22.5103 23.6973 23.0548Z" fill="white"/>
</svg>
