<svg width="22" height="15" viewBox="0 0 22 15" fill="none" xmlns="http://www.w3.org/2000/svg">
<path fill-rule="evenodd" clip-rule="evenodd" d="M18.873 0.442849C19.7847 0.686512 20.5027 1.40442 20.7464 2.3161C21.1892 3.96855 21.1892 7.41628 21.1892 7.41628C21.1892 7.41628 21.1892 10.864 20.7464 12.5163C20.5027 13.428 19.7847 14.146 18.873 14.3897C17.2205 14.8326 10.5945 14.8326 10.5945 14.8326C10.5945 14.8326 3.96855 14.8326 2.3161 14.3897C1.40442 14.146 0.686337 13.428 0.442674 12.5163C0 10.864 0 7.41628 0 7.41628C0 7.41628 0 3.96855 0.442674 2.3161C0.686337 1.40442 1.40442 0.686512 2.3161 0.442849C3.96855 0 10.5945 0 10.5945 0C10.5945 0 17.2205 0 18.873 0.442849ZM13.9806 7.41622L8.47559 10.5947V4.23779L13.9806 7.41622Z" fill="white"/>
</svg>
